<svg width="25" height="24" viewBox="0 0 25 24" fill="none" xmlns="http://www.w3.org/2000/svg">
<path d="M22.0239 12V18C22.0239 20.2091 20.2331 22 18.0239 22H6.02393C3.81479 22 2.02393 20.2091 2.02393 18V6C2.02393 3.79086 3.81479 2 6.02393 2H12.0239M15.7103 4.02275C15.7103 4.02275 15.7103 5.45305 17.1406 6.88334C18.5709 8.31364 20.0012 8.31364 20.0012 8.31364M9.1786 15.9896L12.1822 15.5605C12.6155 15.4986 13.017 15.2978 13.3265 14.9884L21.4315 6.88334C22.2214 6.09341 22.2214 4.81268 21.4315 4.02275L20.0012 2.59245C19.2112 1.80252 17.9305 1.80252 17.1406 2.59245L9.03557 10.6975C8.72609 11.0069 8.52534 11.4084 8.46345 11.8417L8.03436 14.8453C7.93901 15.5128 8.51113 16.0849 9.1786 15.9896Z" stroke="#696E7E" stroke-width="1.5" stroke-linecap="round"/>
</svg>
