<svg width="154" height="32" viewBox="0 0 154 32" fill="none" xmlns="http://www.w3.org/2000/svg">
<path d="M10 2C10 9 15.57 8.426 15.57 8.426C15.448 4 11.901 2.805 11.451 2.672C15.376 2.979 16.43 8.008 16.43 8.008C18.689 4.838 20.824 5.391 20.824 5.391C18.064 5.493 17.287 8.426 17.287 8.426C21.048 9.386 22 5.422 22 5.422C17.453 3.806 16.48 7.598 16.48 7.598C17 2 10 2 10 2ZM16 9C12.536 9 9.523 9.983 7.193 11.697C5.965 13.75 5 16.312 5 19C5 21.688 5.536 24.279 6.754 26.332C9.084 28.047 12.536 29 16 29C19.464 29 22.916 28.047 25.246 26.332C26.464 24.279 27 21.688 27 19C27 16.312 26.035 13.75 24.807 11.697C22.477 9.973 19.464 9 16 9ZM16 10.3C19.004 10.3 21.912 10.978 24.1 12.104C24.583 13.177 24.721 13.991 25 15.246C22.0306 14.7028 19.0186 14.4263 16 14.42C12.9814 14.4263 9.96936 14.7028 7 15.246C7.279 14.002 7.407 13.198 7.9 12.104C10.088 10.978 12.996 10.3 16 10.3ZM10.443 16C10.6374 15.9911 10.8316 16.0217 11.0139 16.09C11.1962 16.1583 11.3627 16.2628 11.5034 16.3973C11.6442 16.5317 11.7562 16.6933 11.8327 16.8723C11.9093 17.0512 11.9487 17.2439 11.9487 17.4385C11.9487 17.6331 11.9093 17.8258 11.8327 18.0047C11.7562 18.1837 11.6442 18.3453 11.5034 18.4797C11.3627 18.6142 11.1962 18.7187 11.0139 18.787C10.8316 18.8553 10.6374 18.8859 10.443 18.877C10.0615 18.877 9.6956 18.7254 9.42583 18.4557C9.15606 18.1859 9.0045 17.82 9.0045 17.4385C9.0045 17.057 9.15606 16.6911 9.42583 16.4213C9.6956 16.1516 10.0615 16 10.443 16ZM14.145 16.002C14.95 16.002 15.588 16.638 15.588 17.443C15.5885 17.6322 15.5515 17.8197 15.4791 17.9945C15.4066 18.1693 15.3002 18.328 15.166 18.4614C15.0318 18.5948 14.8724 18.7002 14.6972 18.7715C14.5219 18.8429 14.3342 18.8787 14.145 18.877C13.9565 18.8775 13.7698 18.8408 13.5956 18.7689C13.4214 18.697 13.2631 18.5914 13.1298 18.4582C12.9966 18.3249 12.891 18.1666 12.8191 17.9924C12.7472 17.8182 12.7105 17.6315 12.711 17.443C12.7095 17.2539 12.7456 17.0665 12.8171 16.8915C12.8885 16.7164 12.994 16.5573 13.1273 16.4233C13.2607 16.2893 13.4193 16.1831 13.594 16.1107C13.7687 16.0384 13.9559 16.0015 14.145 16.002ZM17.855 16.002C18.0441 16.0015 18.2313 16.0384 18.406 16.1107C18.5807 16.1831 18.7393 16.2893 18.8727 16.4233C19.006 16.5573 19.1115 16.7164 19.1829 16.8915C19.2544 17.0665 19.2905 17.2539 19.289 17.443C19.2895 17.6315 19.2528 17.8182 19.1809 17.9924C19.109 18.1666 19.0034 18.3249 18.8702 18.4582C18.7369 18.5914 18.5786 18.697 18.4044 18.7689C18.2302 18.8408 18.0435 18.8775 17.855 18.877C17.6658 18.8787 17.4781 18.8429 17.3028 18.7715C17.1276 18.7002 16.9682 18.5948 16.834 18.4614C16.6998 18.328 16.5934 18.1693 16.5209 17.9945C16.4485 17.8197 16.4115 17.6322 16.412 17.443C16.412 16.638 17.05 16.002 17.855 16.002ZM21.557 16.002C21.749 15.9969 21.94 16.0304 22.1188 16.1003C22.2977 16.1703 22.4607 16.2754 22.5982 16.4094C22.7358 16.5433 22.8451 16.7035 22.9198 16.8805C22.9945 17.0574 23.0329 17.2475 23.0329 17.4395C23.0329 17.6315 22.9945 17.8216 22.9198 17.9985C22.8451 18.1755 22.7358 18.3357 22.5982 18.4696C22.4607 18.6036 22.2977 18.7087 22.1188 18.7787C21.94 18.8486 21.749 18.8821 21.557 18.877C21.365 18.8821 21.174 18.8486 20.9952 18.7787C20.8163 18.7087 20.6533 18.6036 20.5158 18.4696C20.3782 18.3357 20.2689 18.1755 20.1942 17.9985C20.1195 17.8216 20.0811 17.6315 20.0811 17.4395C20.0811 17.2475 20.1195 17.0574 20.1942 16.8805C20.2689 16.7035 20.3782 16.5433 20.5158 16.4094C20.6533 16.2754 20.8163 16.1703 20.9952 16.1003C21.174 16.0304 21.365 15.9969 21.557 16.002ZM10.443 19.574C10.6374 19.5651 10.8316 19.5957 11.0139 19.664C11.1962 19.7323 11.3627 19.8368 11.5034 19.9713C11.6442 20.1057 11.7562 20.2673 11.8327 20.4463C11.9093 20.6252 11.9487 20.8179 11.9487 21.0125C11.9487 21.2071 11.9093 21.3998 11.8327 21.5787C11.7562 21.7577 11.6442 21.9193 11.5034 22.0537C11.3627 22.1882 11.1962 22.2927 11.0139 22.361C10.8316 22.4293 10.6374 22.4599 10.443 22.451C10.0615 22.451 9.6956 22.2994 9.42583 22.0297C9.15606 21.7599 9.0045 21.394 9.0045 21.0125C9.0045 20.631 9.15606 20.2651 9.42583 19.9953C9.6956 19.7256 10.0615 19.574 10.443 19.574ZM14.145 19.574C14.95 19.574 15.588 20.213 15.588 21.018C15.5884 21.2071 15.5513 21.3945 15.4788 21.5692C15.4063 21.7439 15.2999 21.9025 15.1656 22.0357C15.0314 22.169 14.8721 22.2743 14.6969 22.3456C14.5217 22.4169 14.3341 22.4527 14.145 22.451C13.9566 22.4515 13.77 22.4148 13.5958 22.343C13.4217 22.2712 13.2634 22.1657 13.1302 22.0325C12.9969 21.8994 12.8913 21.7412 12.8194 21.5671C12.7474 21.393 12.7106 21.2064 12.711 21.018C12.711 20.213 13.35 19.574 14.145 19.574ZM17.855 19.574C18.65 19.574 19.289 20.213 19.289 21.018C19.2894 21.2064 19.2526 21.393 19.1806 21.5671C19.1087 21.7412 19.0031 21.8994 18.8698 22.0325C18.7366 22.1657 18.5783 22.2712 18.4042 22.343C18.23 22.4148 18.0434 22.4515 17.855 22.451C17.6659 22.4527 17.4783 22.4169 17.3031 22.3456C17.1279 22.2743 16.9686 22.169 16.8344 22.0357C16.7001 21.9025 16.5937 21.7439 16.5212 21.5692C16.4487 21.3945 16.4116 21.2071 16.412 21.018C16.412 20.213 17.05 19.574 17.855 19.574ZM21.557 19.574C21.7514 19.5651 21.9456 19.5957 22.1279 19.664C22.3102 19.7323 22.4767 19.8368 22.6174 19.9713C22.7582 20.1057 22.8702 20.2673 22.9467 20.4463C23.0233 20.6252 23.0627 20.8179 23.0627 21.0125C23.0627 21.2071 23.0233 21.3998 22.9467 21.5787C22.8702 21.7577 22.7582 21.9193 22.6174 22.0537C22.4767 22.1882 22.3102 22.2927 22.1279 22.361C21.9456 22.4293 21.7514 22.4599 21.557 22.451C21.1755 22.451 20.8096 22.2994 20.5398 22.0297C20.2701 21.7599 20.1185 21.394 20.1185 21.0125C20.1185 20.631 20.2701 20.2651 20.5398 19.9953C20.8096 19.7256 21.1755 19.574 21.557 19.574ZM10.443 23.123C10.6374 23.1141 10.8316 23.1447 11.0139 23.213C11.1962 23.2813 11.3627 23.3858 11.5034 23.5203C11.6442 23.6547 11.7562 23.8163 11.8327 23.9953C11.9093 24.1742 11.9487 24.3669 11.9487 24.5615C11.9487 24.7561 11.9093 24.9488 11.8327 25.1277C11.7562 25.3067 11.6442 25.4683 11.5034 25.6027C11.3627 25.7372 11.1962 25.8417 11.0139 25.91C10.8316 25.9783 10.6374 26.0089 10.443 26C10.0615 26 9.6956 25.8484 9.42583 25.5787C9.15606 25.3089 9.0045 24.943 9.0045 24.5615C9.0045 24.18 9.15606 23.8141 9.42583 23.5443C9.6956 23.2746 10.0615 23.123 10.443 23.123ZM14.145 23.123C14.95 23.123 15.588 23.761 15.588 24.566C15.5885 24.7552 15.5515 24.9427 15.4791 25.1175C15.4066 25.2923 15.3002 25.451 15.166 25.5844C15.0318 25.7178 14.8724 25.8232 14.6972 25.8945C14.5219 25.9659 14.3342 26.0017 14.145 26C13.9565 26.0005 13.7698 25.9638 13.5956 25.8919C13.4214 25.82 13.2631 25.7144 13.1298 25.5812C12.9966 25.4479 12.891 25.2896 12.8191 25.1154C12.7472 24.9412 12.7105 24.7545 12.711 24.566C12.711 23.761 13.35 23.123 14.145 23.123ZM17.855 23.123C18.65 23.123 19.289 23.761 19.289 24.566C19.2895 24.7545 19.2528 24.9412 19.1809 25.1154C19.109 25.2896 19.0034 25.4479 18.8702 25.5812C18.7369 25.7144 18.5786 25.82 18.4044 25.8919C18.2302 25.9638 18.0435 26.0005 17.855 26C17.6658 26.0017 17.4781 25.9659 17.3028 25.8945C17.1276 25.8232 16.9682 25.7178 16.834 25.5844C16.6998 25.451 16.5934 25.2923 16.5209 25.1175C16.4485 24.9427 16.4115 24.7552 16.412 24.566C16.412 23.761 17.05 23.123 17.855 23.123ZM21.557 23.123C21.7514 23.1141 21.9456 23.1447 22.1279 23.213C22.3102 23.2813 22.4767 23.3858 22.6174 23.5203C22.7582 23.6547 22.8702 23.8163 22.9467 23.9953C23.0233 24.1742 23.0627 24.3669 23.0627 24.5615C23.0627 24.7561 23.0233 24.9488 22.9467 25.1277C22.8702 25.3067 22.7582 25.4683 22.6174 25.6027C22.4767 25.7372 22.3102 25.8417 22.1279 25.91C21.9456 25.9783 21.7514 26.0089 21.557 26C21.1755 26 20.8096 25.8484 20.5398 25.5787C20.2701 25.3089 20.1185 24.943 20.1185 24.5615C20.1185 24.18 20.2701 23.8141 20.5398 23.5443C20.8096 23.2746 21.1755 23.123 21.557 23.123Z" fill="black"/>
<path d="M52.46 9.8V23H49.94L44.96 14.54L43.82 12.36H43.8L43.86 14.46V23H41.9V9.8H44.4L49.38 18.26L50.54 20.44H50.56L50.48 18.34V9.8H52.46ZM59.1992 23.2C58.5459 23.2 57.9592 23.08 57.4392 22.84C56.9192 22.6 56.4992 22.2133 56.1792 21.68C55.8726 21.1467 55.7192 20.46 55.7192 19.62V13H57.8792V19.08C57.8792 19.88 58.0392 20.4733 58.3592 20.86C58.6926 21.2467 59.2192 21.44 59.9392 21.44C60.2726 21.44 60.5859 21.38 60.8792 21.26C61.1726 21.14 61.4326 20.96 61.6592 20.72C61.8992 20.4667 62.0859 20.1533 62.2192 19.78C62.3526 19.3933 62.4192 18.9533 62.4192 18.46V13H64.5792V23H62.6592L62.5792 21.26C62.3659 21.6867 62.0926 22.0467 61.7592 22.34C61.4392 22.6333 61.0659 22.8533 60.6392 23C60.2126 23.1333 59.7326 23.2 59.1992 23.2ZM70.6119 10.04V19.96C70.6119 20.4667 70.7385 20.8467 70.9919 21.1C71.2452 21.34 71.5852 21.46 72.0119 21.46C72.3585 21.46 72.6519 21.4067 72.8919 21.3C73.1452 21.18 73.3719 21.0267 73.5719 20.84L74.0119 22.36C73.7052 22.6267 73.3385 22.8333 72.9119 22.98C72.4852 23.1267 72.0185 23.2 71.5119 23.2C70.6319 23.2 69.8985 22.98 69.3119 22.54C68.7385 22.1 68.4519 21.36 68.4519 20.32V10.64L70.6119 10.04ZM73.8519 13V14.68H66.6319V13H73.8519ZM75.8973 23V13H77.7573L77.9173 14.9C78.1573 14.2333 78.524 13.72 79.0173 13.36C79.524 12.9867 80.1373 12.8 80.8573 12.8C81.0707 12.8 81.264 12.82 81.4373 12.86C81.624 12.8867 81.784 12.9467 81.9173 13.04L81.6373 14.88C81.5173 14.8267 81.364 14.7867 81.1773 14.76C81.004 14.72 80.764 14.7 80.4573 14.7C80.0707 14.7 79.6907 14.8133 79.3173 15.04C78.944 15.2667 78.6373 15.6067 78.3973 16.06C78.1707 16.5 78.0573 17.0467 78.0573 17.7V23H75.8973ZM86.0261 13V23H83.8661V13H86.0261ZM85.0061 11.36C84.5261 11.36 84.1528 11.2467 83.8861 11.02C83.6328 10.78 83.5061 10.44 83.5061 10C83.5061 9.56 83.6328 9.22667 83.8861 9C84.1528 8.76 84.5261 8.64 85.0061 8.64C85.4861 8.64 85.8528 8.76 86.1061 9C86.3594 9.22667 86.4861 9.56 86.4861 10C86.4861 10.44 86.3594 10.78 86.1061 11.02C85.8528 11.2467 85.4861 11.36 85.0061 11.36ZM92.0572 10.04V19.96C92.0572 20.4667 92.1839 20.8467 92.4372 21.1C92.6905 21.34 93.0305 21.46 93.4572 21.46C93.8039 21.46 94.0972 21.4067 94.3372 21.3C94.5905 21.18 94.8172 21.0267 95.0172 20.84L95.4572 22.36C95.1505 22.6267 94.7839 22.8333 94.3572 22.98C93.9305 23.1267 93.4639 23.2 92.9572 23.2C92.0772 23.2 91.3439 22.98 90.7572 22.54C90.1839 22.1 89.8972 21.36 89.8972 20.32V10.64L92.0572 10.04ZM95.2972 13V14.68H88.0772V13H95.2972ZM99.5027 13V23H97.3427V13H99.5027ZM98.4827 11.36C98.0027 11.36 97.6293 11.2467 97.3627 11.02C97.1093 10.78 96.9827 10.44 96.9827 10C96.9827 9.56 97.1093 9.22667 97.3627 9C97.6293 8.76 98.0027 8.64 98.4827 8.64C98.9627 8.64 99.3293 8.76 99.5827 9C99.836 9.22667 99.9627 9.56 99.9627 10C99.9627 10.44 99.836 10.78 99.5827 11.02C99.3293 11.2467 98.9627 11.36 98.4827 11.36ZM106.934 12.8C107.88 12.8 108.714 13.0067 109.434 13.42C110.167 13.8333 110.74 14.4333 111.154 15.22C111.58 15.9933 111.794 16.92 111.794 18C111.794 19.08 111.58 20.0133 111.154 20.8C110.74 21.5733 110.167 22.1667 109.434 22.58C108.714 22.9933 107.88 23.2 106.934 23.2C105.987 23.2 105.147 22.9933 104.414 22.58C103.68 22.1667 103.107 21.5733 102.694 20.8C102.28 20.0133 102.074 19.08 102.074 18C102.074 16.92 102.28 15.9933 102.694 15.22C103.107 14.4333 103.68 13.8333 104.414 13.42C105.147 13.0067 105.987 12.8 106.934 12.8ZM106.934 14.48C106.374 14.48 105.894 14.62 105.494 14.9C105.094 15.1667 104.78 15.56 104.554 16.08C104.34 16.6 104.234 17.24 104.234 18C104.234 18.76 104.34 19.4 104.554 19.92C104.78 20.44 105.094 20.84 105.494 21.12C105.894 21.3867 106.374 21.52 106.934 21.52C107.494 21.52 107.974 21.3867 108.374 21.12C108.774 20.84 109.08 20.44 109.294 19.92C109.52 19.3867 109.634 18.7467 109.634 18C109.634 17.24 109.52 16.6 109.294 16.08C109.08 15.56 108.774 15.1667 108.374 14.9C107.974 14.62 107.494 14.48 106.934 14.48ZM114.393 23V13H116.293L116.433 15.72L116.153 15.46C116.407 14.5533 116.853 13.8867 117.493 13.46C118.133 13.02 118.88 12.8 119.733 12.8C120.413 12.8 121.02 12.94 121.553 13.22C122.087 13.4867 122.513 13.8933 122.833 14.44C123.153 14.9867 123.313 15.6733 123.313 16.5V23H121.153V17.14C121.153 16.1933 120.953 15.5267 120.553 15.14C120.167 14.7533 119.68 14.56 119.093 14.56C118.68 14.56 118.273 14.6667 117.873 14.88C117.487 15.08 117.167 15.4067 116.913 15.86C116.673 16.3133 116.553 16.9067 116.553 17.64V23H114.393ZM130.685 23.2C129.711 23.2 128.858 22.9933 128.125 22.58C127.391 22.1667 126.818 21.5733 126.405 20.8C125.991 20.0133 125.785 19.08 125.785 18C125.785 16.9067 125.985 15.9733 126.385 15.2C126.798 14.4267 127.365 13.8333 128.085 13.42C128.818 13.0067 129.645 12.8 130.565 12.8C131.511 12.8 132.318 13 132.985 13.4C133.651 13.8 134.158 14.3533 134.505 15.06C134.865 15.7533 135.045 16.5533 135.045 17.46C135.045 17.6867 135.038 17.8933 135.025 18.08C135.011 18.2667 134.998 18.4267 134.985 18.56H127.185V17.08H134.025L132.965 17.4C132.965 16.7733 132.865 16.2467 132.665 15.82C132.478 15.38 132.205 15.0467 131.845 14.82C131.485 14.5933 131.058 14.48 130.565 14.48C130.005 14.48 129.518 14.62 129.105 14.9C128.705 15.1667 128.398 15.5667 128.185 16.1C127.971 16.62 127.865 17.26 127.865 18.02C127.865 18.78 127.978 19.42 128.205 19.94C128.431 20.46 128.758 20.8533 129.185 21.12C129.611 21.3867 130.111 21.52 130.685 21.52C131.298 21.52 131.805 21.3933 132.205 21.14C132.605 20.8733 132.918 20.5133 133.145 20.06L134.865 20.82C134.638 21.3133 134.318 21.74 133.905 22.1C133.505 22.46 133.031 22.7333 132.485 22.92C131.938 23.1067 131.338 23.2 130.685 23.2ZM137.636 23V13H139.496L139.656 14.9C139.896 14.2333 140.262 13.72 140.756 13.36C141.262 12.9867 141.876 12.8 142.596 12.8C142.809 12.8 143.002 12.82 143.176 12.86C143.362 12.8867 143.522 12.9467 143.656 13.04L143.376 14.88C143.256 14.8267 143.102 14.7867 142.916 14.76C142.742 14.72 142.502 14.7 142.196 14.7C141.809 14.7 141.429 14.8133 141.056 15.04C140.682 15.2667 140.376 15.6067 140.136 16.06C139.909 16.5 139.796 17.0467 139.796 17.7V23H137.636ZM148.795 23.2C147.835 23.2 146.955 23.0133 146.155 22.64C145.368 22.2533 144.741 21.7067 144.275 21L145.615 19.74C145.908 20.3133 146.328 20.76 146.875 21.08C147.435 21.4 148.081 21.56 148.815 21.56C149.388 21.56 149.855 21.4467 150.215 21.22C150.575 20.9933 150.755 20.68 150.755 20.28C150.755 20.0133 150.668 19.7867 150.495 19.6C150.335 19.4 150.015 19.2467 149.535 19.14L147.635 18.72C146.581 18.48 145.828 18.1267 145.375 17.66C144.935 17.1933 144.715 16.6 144.715 15.88C144.715 15.3333 144.868 14.8333 145.175 14.38C145.495 13.9133 145.955 13.5333 146.555 13.24C147.168 12.9467 147.908 12.8 148.775 12.8C149.735 12.8 150.555 12.98 151.235 13.34C151.928 13.7 152.455 14.2067 152.815 14.86L151.475 16.04C151.235 15.4933 150.861 15.0933 150.355 14.84C149.861 14.5733 149.355 14.44 148.835 14.44C148.421 14.44 148.061 14.4933 147.755 14.6C147.461 14.7067 147.235 14.86 147.075 15.06C146.928 15.26 146.855 15.4867 146.855 15.74C146.855 16.0067 146.955 16.2467 147.155 16.46C147.355 16.6733 147.701 16.8333 148.195 16.94L150.335 17.4C151.268 17.6 151.928 17.92 152.315 18.36C152.715 18.8 152.915 19.3467 152.915 20C152.915 20.9467 152.548 21.72 151.815 22.32C151.095 22.9067 150.088 23.2 148.795 23.2Z" fill="black"/>
</svg>
